<svg width="52" height="44" viewBox="0 0 52 44" fill="none" xmlns="http://www.w3.org/2000/svg">
<path d="M46.3136 7.80255C48.0865 7.86351 49.5515 8.41823 50.6687 9.61912C51.5116 10.5213 51.9866 11.5637 51.9866 12.7524C51.9933 21.5183 52.0067 30.2902 51.9866 39.0561C51.9799 41.7261 49.6318 43.8535 46.7017 43.9815C46.4943 43.9937 46.2869 43.9937 46.0728 43.9937C33.5829 43.9937 21.0997 43.9937 8.6098 43.9937C4.64274 43.9937 1.41155 41.8724 0.36125 38.544C0.120417 37.7881 0.0200695 36.9713 0.0200695 36.1788C0 26.7302 0 17.2755 0 7.82084C0 3.31599 3.59244 0.0181223 8.5429 0.00593056C16.6376 -0.0123571 24.7323 0.00593056 32.827 0.00593056C35.3557 0.00593056 37.8912 -0.000165309 40.4199 0.00593056C43.9655 0.0181223 46.307 2.16387 46.3136 5.38859C46.3136 6.18105 46.3136 6.97961 46.3136 7.80255ZM42.5807 7.82084C42.5807 6.96742 42.5807 6.18714 42.5807 5.40687C42.5807 4.01092 41.885 3.37085 40.3731 3.37085C29.8099 3.37085 19.2466 3.37085 8.68339 3.37085C5.65959 3.37085 3.70616 5.15694 3.69947 7.92447C3.69947 17.2999 3.69947 26.6815 3.69947 36.0569C3.69947 36.508 3.73961 36.9774 3.86003 37.4163C4.4019 39.4096 6.23492 40.6288 8.65663 40.6288C21.0596 40.6288 33.4625 40.6288 45.8654 40.6288C47.6449 40.6288 48.2938 40.0375 48.2938 38.4282C48.2938 30.083 48.2938 21.7316 48.2938 13.3864C48.2938 11.7953 47.6583 11.2162 45.9123 11.2162C33.9509 11.2162 21.9828 11.2162 10.0214 11.2162C9.68686 11.2162 9.34568 11.2162 9.02457 11.1553C8.10807 10.9846 7.4926 10.2348 7.54612 9.41796C7.60633 8.59501 8.31545 7.92447 9.23865 7.83303C9.4661 7.80865 9.70024 7.82084 9.9277 7.82084C20.5311 7.82084 31.1344 7.82084 41.7445 7.82084H42.574H42.5807Z" fill="#162C51"/>
<path d="M27.93 33.4787C27.6758 34.9478 27.067 35.5696 25.9231 35.533C24.8393 35.4964 24.2305 34.8259 24.0967 33.5092C23.6619 33.4177 23.2137 33.3446 22.7855 33.2227C20.5913 32.5948 19.0861 30.7477 19.0727 28.6873C19.066 27.712 19.7885 26.9683 20.792 26.9195C21.8222 26.8708 22.6317 27.5108 22.7521 28.4679C22.8993 29.6383 23.4746 30.1077 24.7657 30.1138C25.6421 30.1138 26.5251 30.126 27.4015 30.1138C28.4786 30.0955 29.2278 29.4676 29.2412 28.6081C29.2479 27.7486 28.5053 27.1085 27.4216 27.0841C26.3111 27.0597 25.2006 27.1024 24.0967 27.0536C21.4743 26.9439 19.26 24.981 19.0927 22.6585C18.8987 20.0617 20.6916 17.8915 23.4077 17.4161C23.6284 17.3795 23.8559 17.3368 24.07 17.3002C24.3309 15.825 24.933 15.2155 26.0769 15.252C27.1674 15.2825 27.7694 15.947 27.9099 17.282C28.3448 17.3734 28.793 17.4405 29.2278 17.5624C31.4087 18.1781 32.9206 20.0434 32.9407 22.1038C32.9474 23.0791 32.2249 23.8167 31.2147 23.8716C30.1845 23.9265 29.375 23.2803 29.2613 22.3172C29.1208 21.1711 28.5588 20.6896 27.3012 20.6774C26.3178 20.6652 25.3344 20.653 24.3576 20.7017C23.5415 20.7444 23.0197 21.1833 22.8324 21.8539C22.6718 22.4391 22.8993 23.0913 23.4813 23.3961C23.8225 23.579 24.2573 23.6765 24.6587 23.6948C25.6153 23.7375 26.5787 23.6948 27.542 23.7131C30.345 23.7436 32.6731 25.615 32.9072 28.0168C33.1748 30.6746 31.3953 32.8508 28.5321 33.3812C28.3314 33.4177 28.1307 33.4482 27.9367 33.4787H27.93Z" fill="#162C51"/>
</svg>
