<svg width="41" height="36" viewBox="0 0 41 36" fill="none" xmlns="http://www.w3.org/2000/svg">
<g clip-path="url(#clip0_2614_726)">
<path d="M7.44487 22.554C8.01154 22.0571 8.89304 22.062 9.45447 22.5637C13.0067 25.7545 16.6219 28.994 20.2633 32.2677C25.5208 27.5229 30.7468 22.8073 35.9728 18.0917C35.9465 18.0528 35.9203 18.0089 35.8888 17.97C35.7839 17.9553 35.6737 17.931 35.5687 17.931C32.919 17.931 30.2693 17.9212 27.6248 17.9407C27.3939 17.9407 27.1683 18.0333 27.0109 18.1892C25.3109 19.8357 23.6371 21.5066 21.9476 23.1629C21.0241 24.069 19.812 23.8742 19.2663 22.7294C17.7814 19.6165 16.3018 16.5037 14.8169 13.3908C14.7382 13.2203 14.649 13.0595 14.5336 12.8355C14.4076 13.006 14.3079 13.1326 14.224 13.2593C13.3687 14.5746 12.503 15.885 11.6582 17.21C11.0915 18.0966 9.58564 17.7605 7.88562 17.78C5.65564 17.8092 3.17382 17.8725 1.64169 17.9115C0.844152 17.931 0.18303 17.3318 0.18303 16.5913C0.18303 15.8606 0.817917 15.2663 1.59972 15.2663C3.78771 15.2663 6.79424 15.2663 9.00847 15.276C9.30755 15.276 9.58039 15.1348 9.73256 14.8961C10.9341 13.0352 12.1672 11.1889 13.3792 9.32801C13.715 8.81164 14.1505 8.47064 14.8221 8.50961C15.5147 8.54858 15.9083 8.94317 16.1759 9.51313C17.7342 12.7721 19.3031 16.0214 20.8719 19.2755C20.9611 19.4606 21.0556 19.6457 21.171 19.8698C21.2969 19.7675 21.4019 19.6945 21.4858 19.6068C22.7713 18.3548 24.0673 17.1126 25.3266 15.8363C25.8041 15.3491 26.3445 15.1591 27.0424 15.164C30.3427 15.1835 33.6379 15.1737 36.9382 15.1737H37.5993C37.7567 14.4771 37.9824 13.7951 38.0506 13.0985C38.3811 9.81516 37.2793 7.00433 34.5561 4.86576C31.7384 2.65413 28.4328 2.69797 25.0013 3.92557C23.6948 4.39323 22.5667 5.17754 21.5593 6.0885C20.6778 6.88741 19.938 6.8387 18.9778 6.0885C17.8549 5.21651 16.7111 4.34939 15.478 3.62354C13.2113 2.29364 10.8082 2.47388 8.45754 3.41407C5.36706 4.65142 3.92414 5.54777 3.07937 8.55345C3.06363 8.60704 2.98492 8.85548 2.88523 9.15264C2.66486 9.81516 1.95127 10.2146 1.21669 10.088H1.19045C0.329946 9.93207 -0.189506 9.12341 0.0623495 8.34885C0.0938315 8.25142 0.125313 8.15399 0.162042 8.05656C2.00374 2.97077 7.22449 -0.3272 12.886 0.0235447C14.3657 0.116102 15.7246 0.598375 16.9682 1.30961C17.9389 1.86495 18.8361 2.52747 19.7648 3.14614C19.9117 3.24357 20.0481 3.36536 20.2056 3.49202C21.6485 2.37645 23.2226 1.52882 24.9908 1.02219C29.0205 -0.12747 32.8823 0.111231 36.2246 2.66874C39.5302 5.19702 41.1148 8.56319 40.9941 12.548C40.8944 15.8363 39.3046 18.9345 36.7493 21.2143C31.3659 26.0273 25.9982 30.8549 20.6253 35.6728C20.5151 35.7702 20.3997 35.8628 20.2475 35.9894C15.9712 32.1605 11.7107 28.3364 7.43437 24.5074C6.83622 23.9716 6.84146 23.0752 7.44487 22.5491V22.554Z" fill="#03BDBF"/>
</g>
<defs>
<clipPath id="clip0_2614_726">
<rect width="41" height="36" fill="white"/>
</clipPath>
</defs>
</svg>
